Home.mp4
Format                                   : MPEG-4
Format profile                           : Base Media / Version 2
Codec ID                                 : mp42
File size                                : 590 MiB
Duration                                 : 49mn 35s
Overall bit rate mode                    : Variable
Overall bit rate                         : 1 664 Kbps
Encoded date                             : UTC 2013-05-02 12:25:07
Tagged date                              : UTC 2013-05-02 12:35:55
Writing application                      : HandBrake 0.9.8 2012071700

Video
ID                                       : 1
Format                                   : AVC
Format/Info                              : Advanced Video Codec
Format profile                           : Main@L3.0
Format settings, CABAC                   : Yes
Format settings, ReFrames                : 4 frames
Codec ID                                 : avc1
Codec ID/Info                            : Advanced Video Coding
Duration                                 : 49mn 35s
Bit rate mode                            : Variable
Bit rate                                 : 1 500 Kbps
Width                                    : 718 pixels
Height                                   : 576 pixels
Display aspect ratio                     : 16:9
Frame rate mode                          : Constant


Frame rate                              : 25.000 fps
Color space                              : YUV
Chroma subsampling                       : 4:2:0
Bit depth                                : 8 bits
Scan type                                : Progressive
Bits/(Pixel*Frame)                       : 0.145
Stream size                              : 532 MiB (90%)
Writing library                          : x264 core 120
Encoding settings                        : cabac=1 / ref=1 / deblock=1:0:0 / 
Encoded date                             : UTC 2013-05-02 12:25:07
Tagged date                              : UTC 2013-05-02 12:35:55
Color primaries                          : BT.601 NTSC
Transfer characteristics                 : BT.709
Matrix coefficients                      : BT.601

Audio
ID                                       : 2
Format                                   : AAC
Format/Info                              : Advanced Audio Codec
Format profile                           : LC
Codec ID                                 : 40
Duration                                 : 49mn 35s
Bit rate mode                            : Variable
Bit rate                                 : 160 Kbps
Maximum bit rate                         : 258 Kbps
Channel(s)                               : 2 channels
Channel positions                        : Front: L R
Sampling rate                            : 48.0 KHz
Compression mode                         : Lossy
Delay relative to video                  : 80ms
Stream size                              : 56.7 MiB (10%)
Encoded date                             : UTC 2013-05-02 12:25:07
Tagged date                              : UTC 2013-05-02 12:35:54



Ripped FROM FOXTEL TV SOHO Australia

Bea Smith goes from housewife to inmate and finds out the hard way that retribution in prison has fatal consequences.
 
http://www.imdb.com/title/tt2433738/
 
http://www.foxtel.com.au/whats-on/foxtel-insider/wentworth-starts-may-only-on-soho-210957.htm


Episode Info

Episode number: 1x1

Airdate: Wednesday May 01st, 2013

Apologies about the quality best i could do


ADD FREE

Runtime 49 Minutes
